<svg width="336" height="61" viewBox="0 0 336 61" fill="none" xmlns="http://www.w3.org/2000/svg">
<path d="M99.3725 14.844C99.5405 14.364 99.8045 14.004 100.165 13.764C100.549 13.524 100.969 13.404 101.425 13.404C102.001 13.404 102.493 13.584 102.901 13.944C103.333 14.304 103.549 14.784 103.549 15.384C103.549 15.6 103.489 15.912 103.369 16.32L95.6285 37.74C95.4365 38.22 95.1125 38.592 94.6565 38.856C94.2245 39.12 93.7445 39.252 93.2165 39.252C92.6885 39.252 92.1965 39.12 91.7405 38.856C91.2845 38.592 90.9725 38.22 90.8045 37.74L84.8285 20.784L78.7445 37.74C78.5525 38.22 78.2285 38.592 77.7725 38.856C77.3405 39.12 76.8605 39.252 76.3325 39.252C75.8045 39.252 75.3125 39.12 74.8565 38.856C74.4245 38.592 74.1245 38.22 73.9565 37.74L66.2165 16.32C66.0965 15.96 66.0365 15.648 66.0365 15.384C66.0365 14.784 66.2525 14.304 66.6845 13.944C67.1405 13.584 67.6685 13.404 68.2685 13.404C68.7485 13.404 69.1805 13.524 69.5645 13.764C69.9485 14.004 70.2245 14.364 70.3925 14.844L76.5125 32.448L82.8125 14.952C82.9805 14.472 83.2565 14.1 83.6405 13.836C84.0245 13.548 84.4445 13.404 84.9005 13.404C85.3565 13.404 85.7765 13.548 86.1605 13.836C86.5685 14.1 86.8565 14.484 87.0245 14.988L93.1445 32.664L99.3725 14.844ZM127.192 39.324C124.72 39.324 122.572 38.796 120.748 37.74C118.948 36.684 117.556 35.172 116.572 33.204C115.588 31.236 115.096 28.932 115.096 26.292C115.096 23.652 115.576 21.36 116.536 19.416C117.52 17.448 118.924 15.936 120.748 14.88C122.572 13.824 124.72 13.296 127.192 13.296C129.664 13.296 131.8 13.824 133.6 14.88C135.424 15.936 136.816 17.448 137.776 19.416C138.76 21.36 139.252 23.652 139.252 26.292C139.252 28.932 138.76 31.236 137.776 33.204C136.792 35.172 135.388 36.684 133.564 37.74C131.764 38.796 129.64 39.324 127.192 39.324ZM127.192 35.616C129.52 35.616 131.332 34.812 132.628 33.204C133.948 31.596 134.608 29.292 134.608 26.292C134.608 23.292 133.948 21 132.628 19.416C131.332 17.808 129.52 17.004 127.192 17.004C124.84 17.004 123.004 17.808 121.684 19.416C120.388 21 119.74 23.292 119.74 26.292C119.74 29.292 120.388 31.596 121.684 33.204C123.004 34.812 124.84 35.616 127.192 35.616ZM164.247 39.324C161.775 39.324 159.627 38.796 157.803 37.74C156.003 36.684 154.611 35.172 153.627 33.204C152.643 31.236 152.151 28.932 152.151 26.292C152.151 23.652 152.631 21.36 153.591 19.416C154.575 17.448 155.979 15.936 157.803 14.88C159.627 13.824 161.775 13.296 164.247 13.296C166.719 13.296 168.855 13.824 170.655 14.88C172.479 15.936 173.871 17.448 174.831 19.416C175.815 21.36 176.307 23.652 176.307 26.292C176.307 28.932 175.815 31.236 174.831 33.204C173.847 35.172 172.443 36.684 170.619 37.74C168.819 38.796 166.695 39.324 164.247 39.324ZM164.247 35.616C166.575 35.616 168.387 34.812 169.683 33.204C171.003 31.596 171.663 29.292 171.663 26.292C171.663 23.292 171.003 21 169.683 19.416C168.387 17.808 166.575 17.004 164.247 17.004C161.895 17.004 160.059 17.808 158.739 19.416C157.443 21 156.795 23.292 156.795 26.292C156.795 29.292 157.443 31.596 158.739 33.204C160.059 34.812 161.895 35.616 164.247 35.616ZM192.23 39C191.534 39 190.982 38.808 190.574 38.424C190.19 38.04 189.998 37.5 189.998 36.804V15.816C189.998 15.12 190.19 14.58 190.574 14.196C190.982 13.812 191.534 13.62 192.23 13.62H199.358C203.51 13.62 206.726 14.736 209.006 16.968C211.31 19.176 212.462 22.284 212.462 26.292C212.462 30.324 211.31 33.456 209.006 35.688C206.726 37.896 203.51 39 199.358 39H192.23ZM199.07 35.22C204.902 35.22 207.818 32.244 207.818 26.292C207.818 20.364 204.902 17.4 199.07 17.4H194.642V35.22H199.07ZM228.442 39.216C227.746 39.216 227.182 39 226.75 38.568C226.342 38.136 226.138 37.572 226.138 36.876V15.744C226.138 15.048 226.342 14.496 226.75 14.088C227.182 13.656 227.746 13.44 228.442 13.44C229.162 13.44 229.726 13.656 230.134 14.088C230.566 14.496 230.782 15.048 230.782 15.744V36.876C230.782 37.572 230.566 38.136 230.134 38.568C229.726 39 229.162 39.216 228.442 39.216ZM247.495 39C246.799 39 246.247 38.808 245.839 38.424C245.455 38.04 245.263 37.5 245.263 36.804V15.816C245.263 15.12 245.455 14.58 245.839 14.196C246.247 13.812 246.799 13.62 247.495 13.62H260.491C261.187 13.62 261.727 13.776 262.111 14.088C262.495 14.4 262.687 14.844 262.687 15.42C262.687 16.02 262.495 16.488 262.111 16.824C261.727 17.136 261.187 17.292 260.491 17.292H249.799V24.276H259.771C260.467 24.276 261.007 24.432 261.391 24.744C261.775 25.056 261.967 25.512 261.967 26.112C261.967 26.688 261.775 27.132 261.391 27.444C261.007 27.756 260.467 27.912 259.771 27.912H249.799V35.328H260.491C261.187 35.328 261.727 35.496 262.111 35.832C262.495 36.144 262.687 36.6 262.687 37.2C262.687 37.776 262.495 38.22 262.111 38.532C261.727 38.844 261.187 39 260.491 39H247.495ZM283.895 39.324C282.047 39.324 280.295 39.084 278.639 38.604C277.007 38.1 275.675 37.428 274.643 36.588C274.091 36.18 273.815 35.604 273.815 34.86C273.815 34.356 273.959 33.924 274.247 33.564C274.559 33.18 274.919 32.988 275.327 32.988C275.759 32.988 276.251 33.156 276.803 33.492C277.835 34.236 278.915 34.776 280.043 35.112C281.171 35.448 282.419 35.616 283.787 35.616C285.539 35.616 286.883 35.316 287.819 34.716C288.755 34.092 289.223 33.192 289.223 32.016C289.223 31.104 288.779 30.408 287.891 29.928C287.027 29.424 285.575 28.944 283.535 28.488C281.423 28.032 279.707 27.504 278.387 26.904C277.067 26.304 276.071 25.536 275.399 24.6C274.727 23.664 274.391 22.476 274.391 21.036C274.391 19.548 274.811 18.216 275.651 17.04C276.491 15.864 277.655 14.952 279.143 14.304C280.655 13.632 282.347 13.296 284.219 13.296C287.651 13.296 290.447 14.208 292.607 16.032C292.919 16.296 293.135 16.56 293.255 16.824C293.399 17.064 293.471 17.376 293.471 17.76C293.471 18.264 293.315 18.708 293.003 19.092C292.715 19.452 292.367 19.632 291.959 19.632C291.719 19.632 291.491 19.596 291.275 19.524C291.083 19.452 290.819 19.32 290.483 19.128C289.499 18.408 288.539 17.88 287.603 17.544C286.691 17.184 285.563 17.004 284.219 17.004C282.587 17.004 281.291 17.34 280.331 18.012C279.395 18.66 278.927 19.572 278.927 20.748C278.927 21.732 279.347 22.488 280.187 23.016C281.027 23.544 282.455 24.036 284.471 24.492C286.607 24.972 288.335 25.512 289.655 26.112C290.999 26.688 292.019 27.432 292.715 28.344C293.435 29.256 293.795 30.396 293.795 31.764C293.795 33.252 293.375 34.572 292.535 35.724C291.719 36.852 290.555 37.74 289.043 38.388C287.555 39.012 285.839 39.324 283.895 39.324Z" fill="#3E3F43"/>
<path d="M0.5 4.39624H17.1488C21.2909 4.39624 24.6488 7.7541 24.6488 11.8962V25.3659H8C3.85787 25.3659 0.5 22.0081 0.5 17.8659V4.39624Z" stroke="#DAA520"/>
<path d="M28.1637 28.8765H44.8125C48.9546 28.8765 52.3125 32.2343 52.3125 36.3765V49.8462H35.6637C31.5216 49.8462 28.1637 46.4883 28.1637 42.3462V28.8765Z" stroke="#DAA520"/>
<path d="M35.6637 1.25757H49.1689V17.8658C49.1689 22.0079 45.811 25.3658 41.6689 25.3658H28.1637V8.75757C28.1637 4.61543 31.5216 1.25757 35.6637 1.25757Z" stroke="#DAA520"/>
<path d="M11.1436 28.8765H24.6488V45.4847C24.6488 49.6268 21.291 52.9847 17.1488 52.9847H3.64362V36.3765C3.64362 32.2343 7.00148 28.8765 11.1436 28.8765Z" stroke="#DAA520"/>
</svg>
