<svg width="100%" height="100%" viewBox="0 0 100 120" fill="none" xmlns="http://www.w3.org/2000/svg">
<g clip-path="url(#clip0)">
<path d="M95.4277 26.4387L94.5161 26.2374V23.2258C94.5161 11.4677 84.9839 1.93549 73.2258 1.93549C63.6413 1.93549 55.549 8.27419 52.88 16.9839L50.7277 16.5058C48.3684 15.9813 46.129 17.7774 46.129 20.1948C46.129 21.9658 47.36 23.4987 49.0884 23.8839L82.8955 31.3974L86.9871 32.3071L93.7884 33.8187C96.1477 34.3413 98.3871 32.5452 98.3871 30.1277C98.3871 28.3568 97.1561 26.8239 95.4277 26.4387Z" fill="#A8DCEC"/>
<path d="M7.41937 56.129L11.1897 48.3871L7.41937 40.6452L16.0787 40.0065L20.9678 32.9032V1.93549H1.61292V118.065H20.9678V63.871L16.0787 56.7677L7.41937 56.129Z" fill="#F7DEA6"/>
<path d="M94.3148 35.8103C94.4174 35.8161 94.52 35.8432 94.6206 35.8432C95.9038 35.8432 97.158 35.4077 98.1838 34.5852C99.5445 33.4974 100.323 31.8716 100.323 30.1277C100.323 27.6426 98.7548 25.5194 96.4516 24.7374V23.2258C96.4516 10.4187 86.0329 0 73.2258 0C63.6509 0 55.0787 5.95355 51.62 14.7213L51.1458 14.6168C49.4464 14.2374 47.6909 14.6458 46.3322 15.7374C44.9716 16.8252 44.1935 18.451 44.1935 20.1948C44.1935 22.68 45.7613 24.8032 48.0645 25.5852V32.9032C48.0645 42.7839 54.2755 51.2206 62.9909 54.569C61.3032 55.3645 59.6967 56.3419 58.2296 57.5168L55.1271 60H41.6096L40.6264 55.4052C41.6096 54.7026 42.258 53.5568 42.258 52.2581H50.7567L49.8006 49.411C48.5967 45.7935 45.4709 43.2368 41.7838 42.6968C41.1277 41.4813 39.86 40.6452 38.3871 40.6452H30.6451C29.2187 40.6452 27.9838 41.429 27.3122 42.5806H22.9032C20.7684 42.5806 19.0322 44.3168 19.0322 46.4516V50.3226C19.0322 52.4574 20.7684 54.1935 22.9032 54.1935H27.3122C27.7148 54.8826 28.3148 55.4381 29.0445 55.7729L30.74 62.5568C29.4916 63.9329 28.7096 65.7406 28.7096 67.7419C28.7096 71.0961 30.8658 73.9297 33.8542 75.0039L35.8922 83.16C36.198 84.389 36.9316 85.409 37.9013 86.1077C36.9606 87.9 36.4516 89.88 36.4516 91.9355V108.927L34.2761 109.653C32.1045 110.377 30.6451 112.401 30.6451 114.691C30.6451 117.619 33.0258 120 35.9542 120H59.6774V119.923C60.2716 119.865 60.8638 119.777 61.4464 119.644L83.9716 114.445L85.9768 117.455C87.0393 119.048 88.818 120 90.7342 120C93.8871 120 96.4516 117.435 96.4516 114.283V102.581C96.4516 99.3793 93.8464 96.7742 90.6451 96.7742H84.7884C86.0174 95.1523 86.7742 93.1548 86.7742 90.9677V60H86.7451C86.6387 57.0581 84.949 54.5419 82.4987 53.2316C88.849 49.7187 93.3703 43.3161 94.3148 35.8103ZM73.2258 3.87097C83.898 3.87097 92.5806 12.5535 92.5806 23.2258V23.8239L55.458 15.5748C58.4793 8.58 65.4548 3.87097 73.2258 3.87097ZM51.9355 32.9032V26.4987L67.4193 29.94V36.7742H71.2903C72.3587 36.7742 73.2258 37.6413 73.2258 38.7097C73.2258 39.7781 72.3587 40.6452 71.2903 40.6452H67.4193V51.8671C58.5955 50.069 51.9355 42.2497 51.9355 32.9032ZM61.8858 59.6342C63.38 58.6161 65.0019 57.8071 66.7051 57.2245L61.8858 59.6342ZM34.1851 60.3774L33.1226 56.129H36.8232L37.6516 60H36.4516C35.658 60 34.9071 60.1548 34.1851 60.3774ZM42.258 48.3871V46.7981C43.2219 47.1213 44.1006 47.6497 44.7916 48.3871H42.258ZM30.6451 44.5161H38.3871L38.3909 52.2581H30.6451V44.5161ZM22.9032 46.4516H26.7742V50.3226H22.9032V46.4516ZM36.4516 63.871H60.4167L64.2877 71.6129H36.4516C34.3167 71.6129 32.5806 69.8768 32.5806 67.7419C32.5806 65.6071 34.3167 63.871 36.4516 63.871ZM46.3187 98.6284C44.929 100.848 44.1935 103.411 44.1935 106.032C44.1935 106.835 44.2767 107.619 44.4084 108.387H40.3226V91.9355C40.3226 90.1606 40.8587 88.4555 41.8593 87.0039C43.6071 86.6864 45.0548 85.5019 45.7245 83.9032C48.3606 82.831 51.4806 83.1387 53.869 84.7219V86.5432L46.3187 98.6284ZM45.8561 79.8116L44.929 75.4839H53.8709V80.3574C51.3432 79.3316 48.4942 79.1516 45.8561 79.8116ZM40.969 75.4839L42.2271 81.3503C42.2484 81.4452 42.258 81.5419 42.258 81.6368V81.9019C42.258 82.6316 41.6638 83.2258 40.9322 83.2258C40.3245 83.2258 39.7942 82.8116 39.6451 82.2213L37.9632 75.4839H40.969ZM57.7419 75.4839H67.9206L82.6438 67.3026C82.7348 67.2523 82.8142 67.1884 82.9032 67.1342V85.1613H57.7419V75.4839ZM35.9542 116.129C35.1606 116.129 34.5161 115.485 34.5161 114.691C34.5161 114.072 34.9109 113.522 35.5013 113.325L38.7006 112.258H45.68C46.4096 113.712 47.3832 115.018 48.5561 116.129H35.9542ZM92.5806 102.581V114.283C92.5806 115.301 91.7522 116.129 90.7342 116.129C90.1148 116.129 89.5419 115.823 89.1974 115.306L86.7742 111.674V100.645H90.6451C91.7135 100.645 92.5806 101.512 92.5806 102.581ZM69.3548 100.645H77.0967H82.9032V110.717L60.5774 115.87C59.8322 116.042 59.0696 116.129 58.1619 116.129C52.5935 116.129 48.0645 111.6 48.0645 106.032C48.0645 104.137 48.5948 102.285 49.5993 100.68L56.8787 89.0323H82.9032V90.9677C82.9032 94.169 80.298 96.7742 77.0967 96.7742H69.3548H61.6129V100.645H69.3548ZM80.7664 63.9194L68.2477 70.8735L64.2103 62.7987L76.6709 56.5664C77.2496 56.28 77.8942 56.129 78.5348 56.129H78.7458C81.0393 56.129 82.9032 57.9929 82.9032 60.2845C82.9032 61.7961 82.0845 63.1858 80.7664 63.9194ZM71.2903 52.2581V44.5161C74.4916 44.5161 77.0967 41.911 77.0967 38.7097C77.0967 35.5084 74.4916 32.9032 71.2903 32.9032V30.8013L82.4755 33.2864L83.3155 29.5065L49.5084 21.9929C48.6703 21.809 48.0645 21.0523 48.0645 20.1948C48.0645 19.6335 48.3161 19.1071 48.7535 18.7568C49.1909 18.4065 49.758 18.2729 50.3077 18.3968L95.0077 28.3297C95.8458 28.5135 96.4516 29.2703 96.4516 30.1277C96.4516 30.689 96.2 31.2155 95.7626 31.5658C95.3251 31.9161 94.7561 32.0477 94.2084 31.9258L87.4071 30.4161L86.5671 34.1961L90.5135 35.0729C89.4316 44.7252 81.2271 52.2581 71.2903 52.2581Z" fill="#333333"/>
<path d="M24.2638 55.6703L20.9677 60.4568L17.1451 54.9058L10.4096 54.4084L13.3438 48.3871L10.4096 42.3658L17.1451 41.8684L20.9677 36.3174L24.2638 41.1058L27.4496 38.909L22.9032 32.3013V0H-0.322632V120H22.9032V64.4729L27.4516 57.8671L24.2638 55.6703ZM3.54834 116.129V3.87097H19.0322V32.3013L15.0103 38.1445L4.42898 38.9245L9.03737 48.3871L4.42898 57.8497L15.0103 58.6297L19.0322 64.4729V116.129H3.54834Z" fill="#333333"/>
<path d="M59.6774 30.9677H55.8064V34.8387H59.6774V30.9677Z" fill="#333333"/>
<path d="M11.2903 7.74194H7.41931V23.2258H11.2903V7.74194Z" fill="#333333"/>
<path d="M11.2903 27.0968H7.41931V30.9678H11.2903V27.0968Z" fill="#333333"/>
<path d="M15.1613 65.8065H11.2903V81.2903H15.1613V65.8065Z" fill="#333333"/>
<path d="M11.2903 100.645H7.41931V112.258H11.2903V100.645Z" fill="#333333"/>
</g>
<defs>
<clipPath id="clip0">
<rect width="100" height="120" fill="white"/>
</clipPath>
</defs>
</svg>
